<svg xmlns="http://www.w3.org/2000/svg" version="1.1" xmlns:xlink="http://www.w3.org/1999/xlink" xmlns:svgjs="http://svgjs.dev/svgjs" viewBox="0 0 2400 800" opacity="0.72"><defs><linearGradient x1="50%" y1="0%" x2="50%" y2="100%" id="sssurf-grad"><stop stop-color="hsl(208, 77%, 50%)" stop-opacity="1" offset="0%"></stop><stop stop-color="hsl(208, 74%, 93%)" stop-opacity="1" offset="100%"></stop></linearGradient></defs><g fill="url(#sssurf-grad)" transform="matrix(1,0,0,1,0,-149.97747802734375)"><path d="M 0 359.1146849425371 Q 480 450 480 285.9549528420855 Q 960 450 960 306.044489686789 Q 1440 450 1440 361.99915632542263 Q 1920 450 1920 362.04364782073174 Q 2400 450 2400 346.84567104540895 L 2400 800 L 0 800 L 0 291.1652147396286 Z" transform="matrix(1,0,0,1,0,46)" opacity="0.05"></path><path d="M 0 359.1146849425371 Q 480 450 480 285.9549528420855 Q 960 450 960 306.044489686789 Q 1440 450 1440 361.99915632542263 Q 1920 450 1920 362.04364782073174 Q 2400 450 2400 346.84567104540895 L 2400 800 L 0 800 L 0 291.1652147396286 Z" transform="matrix(1,0,0,1,0,92)" opacity="0.19"></path><path d="M 0 359.1146849425371 Q 480 450 480 285.9549528420855 Q 960 450 960 306.044489686789 Q 1440 450 1440 361.99915632542263 Q 1920 450 1920 362.04364782073174 Q 2400 450 2400 346.84567104540895 L 2400 800 L 0 800 L 0 291.1652147396286 Z" transform="matrix(1,0,0,1,0,138)" opacity="0.32"></path><path d="M 0 359.1146849425371 Q 480 450 480 285.9549528420855 Q 960 450 960 306.044489686789 Q 1440 450 1440 361.99915632542263 Q 1920 450 1920 362.04364782073174 Q 2400 450 2400 346.84567104540895 L 2400 800 L 0 800 L 0 291.1652147396286 Z" transform="matrix(1,0,0,1,0,184)" opacity="0.46"></path><path d="M 0 359.1146849425371 Q 480 450 480 285.9549528420855 Q 960 450 960 306.044489686789 Q 1440 450 1440 361.99915632542263 Q 1920 450 1920 362.04364782073174 Q 2400 450 2400 346.84567104540895 L 2400 800 L 0 800 L 0 291.1652147396286 Z" transform="matrix(1,0,0,1,0,230)" opacity="0.59"></path><path d="M 0 359.1146849425371 Q 480 450 480 285.9549528420855 Q 960 450 960 306.044489686789 Q 1440 450 1440 361.99915632542263 Q 1920 450 1920 362.04364782073174 Q 2400 450 2400 346.84567104540895 L 2400 800 L 0 800 L 0 291.1652147396286 Z" transform="matrix(1,0,0,1,0,276)" opacity="0.73"></path><path d="M 0 359.1146849425371 Q 480 450 480 285.9549528420855 Q 960 450 960 306.044489686789 Q 1440 450 1440 361.99915632542263 Q 1920 450 1920 362.04364782073174 Q 2400 450 2400 346.84567104540895 L 2400 800 L 0 800 L 0 291.1652147396286 Z" transform="matrix(1,0,0,1,0,322)" opacity="0.86"></path><path d="M 0 359.1146849425371 Q 480 450 480 285.9549528420855 Q 960 450 960 306.044489686789 Q 1440 450 1440 361.99915632542263 Q 1920 450 1920 362.04364782073174 Q 2400 450 2400 346.84567104540895 L 2400 800 L 0 800 L 0 291.1652147396286 Z" transform="matrix(1,0,0,1,0,368)" opacity="1.00"></path></g></svg>